<svg width="45" height="45" viewBox="0 0 246 196" fill="none" xmlns="http://www.w3.org/2000/svg">
<g id="Layer_1">
<g id="Group">
<path id="Vector" d="M236.718 55.4341L186.079 7.77087C181.353 3.32564 174.038 3.41302 169.738 7.97838L130.539 49.5909L131.255 48.5369C118.394 61.9327 109.801 45.0037 107.763 40.3237C107.615 39.9523 107.468 39.581 107.309 39.2151C107.304 39.2042 107.293 39.1769 107.293 39.1769C104.479 32.7766 100.36 26.8187 94.9459 21.7182C73.3606 1.39793 39.3955 2.41913 19.0776 23.9899C-1.24572 45.5607 -0.22955 79.517 21.3503 99.8263L45.7602 122.801C45.7602 122.801 47.492 124.428 50.8902 122.822C50.8902 122.822 60.44 118.295 58.4732 128.13C57.4844 132.073 58.6644 136.497 61.9151 139.56L112.554 187.224C117.28 191.669 124.59 191.581 128.895 187.016L237.488 71.746C241.788 67.1861 241.438 59.8794 236.712 55.4287L236.718 55.4341Z" fill="#29335C"/>
<path id="Vector_2" d="M109.473 190.506L58.8337 142.837C54.5287 138.79 52.7149 132.789 54.0807 127.159C54.1353 126.88 54.1735 126.634 54.1954 126.427C53.6928 126.552 53.1519 126.733 52.8241 126.891C48.2568 129.048 44.5036 127.798 42.6734 126.077L18.2635 103.103C-5.08646 81.1227 -6.1955 44.2503 15.7941 20.9047C37.7892 -2.43546 74.6772 -3.54404 98.0272 18.4363C103.725 23.8045 108.211 30.1228 111.352 37.2275C111.396 37.3203 111.434 37.4077 111.472 37.5005C111.565 37.7135 111.674 37.9811 111.778 38.2542L111.92 38.5982C112.603 40.171 114.581 44.2994 117.411 46.9644C119.722 49.1433 122.639 50.9946 127.999 45.4135C128.31 45.0858 128.66 44.8182 129.031 44.6107L166.46 4.89315C172.453 -1.46887 182.637 -1.64909 189.165 4.4945L239.81 52.1632C246.338 58.3068 246.77 68.4806 240.777 74.8426L132.183 190.113C126.19 196.475 116.007 196.655 109.478 190.511L109.473 190.506ZM60.7732 119.355C63.035 121.485 63.7452 124.728 62.8929 129.01C62.8765 129.081 62.8601 129.152 62.8437 129.223C62.2155 131.729 63.0459 134.438 65.0072 136.284L115.646 183.947C118.558 186.689 123.033 186.683 125.622 183.936L234.215 68.6608C236.805 65.9139 236.543 61.4523 233.631 58.7109L182.992 11.0422C180.085 8.30625 175.611 8.31171 173.021 11.0586L133.817 52.6711C133.369 53.1407 132.845 53.5012 132.282 53.736C125.267 59.6393 117.722 59.6065 111.248 53.5175C107.342 49.8423 104.802 44.7909 103.632 42.1041L103.43 41.6127C103.348 41.4161 103.266 41.214 103.184 41.0174C103.179 41.001 103.174 40.9901 103.168 40.9737C100.513 34.9284 96.705 29.5439 91.8591 24.9786C72.1204 6.40037 40.9415 7.33966 22.3555 27.0647C3.76949 46.7951 4.70371 77.9608 24.4425 96.539L48.2951 118.989C48.4426 118.956 48.6666 118.885 48.9725 118.743C50.2072 118.159 56.6102 115.423 60.7786 119.344L60.7732 119.355Z" fill="#29335C"/>
</g>
<path id="Vector_3" d="M88.8817 28.1458C70.8584 11.1786 42.4877 12.0305 25.5134 30.0517C8.54446 48.0674 9.39127 76.4262 27.42 93.3934C45.4433 110.361 73.8141 109.503 90.7884 91.493C107.763 73.4773 106.91 45.113 88.8817 28.1458ZM44.1759 75.6016C35.981 67.8853 35.5931 54.9919 43.3127 46.8005C51.0322 38.609 63.931 38.2213 72.1259 45.9377C80.3208 53.654 80.7142 66.5473 72.9891 74.7388C65.275 82.9302 52.3708 83.3179 44.1759 75.6016Z" fill="white"/>
<path id="Vector_4" d="M214.296 79.3096C215.263 80.2215 216.793 80.1724 217.706 79.2058L230.637 65.4769C231.549 64.5104 231.5 62.9813 230.533 62.0693L179.867 14.3787C178.9 13.4667 177.37 13.5159 176.458 14.4825L129.097 64.7506C128.185 65.7172 128.234 67.2463 129.201 68.1583L179.862 115.849C180.829 116.761 182.364 116.712 183.276 115.745L196.208 102.016C197.12 101.05 197.071 99.5206 196.104 98.6086L162.505 66.9842L180.692 47.6797L214.291 79.3041L214.296 79.3096Z" fill="white"/>
<path id="Vector_5" d="M153.862 143.465C154.829 144.377 156.359 144.328 157.271 143.361L170.203 129.632C171.115 128.66 171.071 127.137 170.104 126.225L119.443 78.5341C118.476 77.6221 116.947 77.6713 116.034 78.6379L68.6734 128.906C67.7665 129.873 67.8102 131.402 68.7772 132.314L119.438 180.004C120.405 180.916 121.935 180.867 122.847 179.9L135.779 166.172C136.691 165.205 136.642 163.676 135.675 162.764L102.076 131.14L120.263 111.835L153.862 143.46V143.465Z" fill="white"/>
</g>
</svg>
