<svg width="36" height="36" viewBox="0 0 36 36" fill="none" xmlns="http://www.w3.org/2000/svg">
<g clip-path="url(#clip0_262_2264)">
<path d="M14.9086 23.6091L4.48335 22.0046C3.75851 21.893 3.52523 20.9886 4.05704 20.5336L4.14744 20.4649L23.0593 7.97825C23.1812 7.89769 23.3219 7.85013 23.4677 7.84021C23.6135 7.8303 23.7593 7.85837 23.891 7.92168C24.0227 7.985 24.1357 8.08139 24.2189 8.20144C24.3022 8.32149 24.3529 8.46109 24.3661 8.6066L24.3681 8.73386L23.0103 31.3553C22.9658 32.0877 22.0861 32.4042 21.5836 31.9165L21.5079 31.8338L14.9086 23.6091ZM6.90598 20.6688L14.9193 21.9015L18.6506 15.4387C18.7527 15.262 18.9153 15.1281 19.1083 15.062C19.3014 14.9959 19.5119 15.0019 19.7009 15.079L19.8043 15.1296C19.9812 15.2317 20.115 15.3945 20.1811 15.5878C20.2471 15.7811 20.2409 15.9918 20.1635 16.1808L20.1134 16.2833L16.381 22.748L21.4558 29.0704L22.5818 10.3188L6.90598 20.6688Z" fill="#426BFF"/>
</g>
<defs>
<clipPath id="clip0_262_2264">
<rect width="27.0262" height="27.0262" fill="white" transform="translate(0 22.4055) rotate(-60)"/>
</clipPath>
</defs>
</svg>
