<svg width="60" height="56" viewBox="0 0 60 56" fill="none" xmlns="http://www.w3.org/2000/svg">
<path d="M52.5 18.6668C53.8261 18.6668 55.0978 19.1584 56.0355 20.0336C56.9732 20.9088 57.5 22.0957 57.5 23.3334V32.6668C57.5 33.9044 56.9732 35.0914 56.0355 35.9666C55.0978 36.8418 53.8261 37.3334 52.5 37.3334H49.845C49.2355 41.8445 46.8832 45.9928 43.2294 49.0001C39.5756 52.0073 34.8715 53.6667 30 53.6668V49.0001C33.9782 49.0001 37.7936 47.5251 40.6066 44.8996C43.4196 42.2741 45 38.7131 45 35.0001V21.0001C45 17.2871 43.4196 13.7261 40.6066 11.1006C37.7936 8.47509 33.9782 7.00009 30 7.00009C26.0217 7.00009 22.2064 8.47509 19.3934 11.1006C16.5804 13.7261 15 17.2871 15 21.0001V37.3334H7.5C6.17392 37.3334 4.90215 36.8418 3.96447 35.9666C3.02678 35.0914 2.5 33.9044 2.5 32.6668V23.3334C2.5 22.0957 3.02678 20.9088 3.96447 20.0336C4.90215 19.1584 6.17392 18.6668 7.5 18.6668H10.155C10.7651 14.1562 13.1177 10.0084 16.7714 7.00167C20.4252 3.99494 25.1289 2.33594 30 2.33594C34.8711 2.33594 39.5748 3.99494 43.2286 7.00167C46.8823 10.0084 49.2349 14.1562 49.845 18.6668H52.5ZM19.4 36.8318L22.05 32.8744C24.4327 34.2675 27.1884 35.0043 30 35.0001C32.8116 35.0043 35.5673 34.2675 37.95 32.8744L40.6 36.8318C37.4231 38.6894 33.7489 39.6721 30 39.6668C26.2511 39.6723 22.5768 38.6895 19.4 36.8318Z" fill="#3B3561"/>
</svg>
