<svg width="38" height="38" viewBox="0 0 38 38" fill="none" xmlns="http://www.w3.org/2000/svg">
<g id="ic:twotone-add-photo-alternate">
<path id="Vector" d="M16.166 26.6475L13.0627 22.9108L8.7085 28.5H26.1252L20.5202 21.0425L16.166 26.6475Z" fill="#8F8F8F"/>
<path id="Vector_2" opacity="0.3" d="M26.1252 28.5H8.7085L13.0627 22.9108L16.166 26.6475L20.5202 21.0425L26.1252 28.5ZM26.9168 11.0833H22.1668V9.5H6.3335V31.6667H28.5002V15.8333H26.9168V11.0833Z" fill="#8F8F8F"/>
<path id="Vector_3" d="M31.6665 6.33331V1.58331H28.4998V6.33331H23.7498V9.49998H28.4998V14.2341H31.6665V9.49998H36.4165V6.33331H31.6665ZM28.4998 31.6666H6.33317V9.49998H22.1665V6.33331H6.33317C4.5915 6.33331 3.1665 7.75831 3.1665 9.49998V31.6666C3.1665 33.4083 4.5915 34.8333 6.33317 34.8333H28.4998C30.2415 34.8333 31.6665 33.4083 31.6665 31.6666V15.8333H28.4998V31.6666Z" fill="#8F8F8F"/>
</g>
</svg>
