<svg width="36" height="36" viewBox="0 0 36 36" fill="none" xmlns="http://www.w3.org/2000/svg">
<path opacity="0.16" d="M28.6066 19.713L20.1211 28.2C19.5585 28.7624 18.7956 29.0784 18.0001 29.0784C17.2046 29.0784 16.4416 28.7624 15.8791 28.2L7.39356 19.7145C6.69211 19.0192 6.13492 18.1922 5.75395 17.2809C5.37299 16.3697 5.17576 15.3922 5.1736 14.4045C5.17144 13.4168 5.36438 12.4384 5.74135 11.5255C6.11832 10.6126 6.67189 9.78315 7.37028 9.08476C8.06868 8.38637 8.89814 7.8328 9.81105 7.45583C10.724 7.07886 11.7023 6.88592 12.69 6.88808C13.6777 6.89024 14.6552 7.08747 15.5665 7.46843C16.4777 7.84939 17.3047 8.40659 18.0001 9.10804C19.4124 7.73084 21.3105 6.96553 23.2831 6.97789C25.2557 6.99025 27.1441 7.77929 28.539 9.17407C29.934 10.5689 30.7233 12.4571 30.736 14.4297C30.7486 16.4023 29.9836 18.3005 28.6066 19.713Z" fill="#FF4E8D"/>
<path d="M28.6065 19.7131L20.121 28.2001C19.5584 28.7625 18.7955 29.0785 18 29.0785C17.2045 29.0785 16.4416 28.7625 15.879 28.2001L7.39347 19.7146C6.01628 18.3022 5.25097 16.4042 5.26333 14.4316C5.27569 12.4589 6.06472 10.5706 7.45951 9.17562C8.85429 7.78064 10.7425 6.99134 12.7151 6.9787C14.6878 6.96606 16.5859 7.7311 17.9985 9.1081C19.405 7.70139 21.3127 6.91103 23.3019 6.91089C24.2869 6.91082 25.2623 7.10476 26.1723 7.48162C27.0823 7.85849 27.9092 8.41091 28.6057 9.10735C29.3023 9.80378 29.8548 10.6306 30.2318 11.5406C30.6088 12.4505 30.8029 13.4258 30.8029 14.4108C30.803 15.3958 30.6091 16.3711 30.2322 17.2812C29.8553 18.1912 29.3029 19.0166 28.6065 19.7131Z" stroke="#FF4E8D" stroke-width="2" stroke-linecap="round" stroke-linejoin="round"/>
</svg>
