<svg width="14" height="14" viewBox="0 0 14 14" fill="none" xmlns="http://www.w3.org/2000/svg">
<path fill-rule="evenodd" clip-rule="evenodd" d="M2.42441 3.08054C3.00534 2.49981 3.77457 2.14564 4.59351 2.08183C5.41245 2.01802 6.22726 2.24878 6.89112 2.73253C7.59245 2.22512 8.45903 2.00017 9.31861 2.1024C10.1782 2.20463 10.9678 2.62655 11.5306 3.2843C12.0933 3.94205 12.388 4.78747 12.356 5.65252C12.324 6.51757 11.9677 7.3389 11.3578 7.95327L8.10916 11.2019C7.78608 11.5249 7.34796 11.7064 6.89112 11.7064C6.43429 11.7064 5.99616 11.5249 5.67309 11.2019L2.42441 7.95384C1.77827 7.30766 1.41528 6.43128 1.41528 5.51748C1.41528 4.60368 1.77827 3.72672 2.42441 3.08054Z" fill="#FF4E8D"/>
</svg>
