<svg width="62" height="49" viewBox="0 0 62 49" fill="none" xmlns="http://www.w3.org/2000/svg">
<path d="M59.9041 13.9296L47.0893 1.95268C45.8934 0.83568 44.0422 0.857636 42.9541 2.00483L33.0344 12.4613L33.2155 12.1965C29.961 15.5626 27.7863 11.3086 27.2706 10.1326C27.2333 10.0393 27.1959 9.94599 27.1559 9.85405C27.1545 9.85131 27.1517 9.84445 27.1517 9.84445C26.4397 8.23618 25.3973 6.73906 24.0272 5.45739C18.5648 0.351279 9.9695 0.607888 4.82784 6.02824C-0.315212 11.4486 -0.0580593 19.9812 5.40297 25.0846L11.5802 30.8576C11.5802 30.8576 12.0184 31.2665 12.8784 30.8631C12.8784 30.8631 15.295 29.7255 14.7973 32.1969C14.5471 33.1876 14.8457 34.2992 15.6683 35.069L28.4831 47.0459C29.679 48.1629 31.5288 48.141 32.6183 46.9938L60.099 18.0285C61.1871 16.8827 61.0986 15.0466 59.9027 13.9282L59.9041 13.9296Z" fill="#FF5E7F"/>
<path d="M27.7035 47.8707L14.8887 35.8924C13.7993 34.8756 13.3403 33.3675 13.6859 31.9527C13.6997 31.8827 13.7094 31.8209 13.7149 31.7688C13.5877 31.8004 13.4509 31.8456 13.3679 31.8854C12.2121 32.4275 11.2623 32.1132 10.7992 31.681L4.62197 25.908C-1.287 20.3847 -1.56766 11.1193 3.99706 5.25297C9.56317 -0.611991 18.8981 -0.890556 24.8071 4.63272C26.249 5.98163 27.3841 7.56931 28.1791 9.3546C28.1901 9.37793 28.1998 9.39988 28.2095 9.42321C28.233 9.47673 28.2606 9.54397 28.2869 9.61258L28.3229 9.69903C28.4957 10.0942 28.9961 11.1317 29.7123 11.8013C30.2971 12.3488 31.0354 12.814 32.3917 11.4116C32.4705 11.3293 32.559 11.262 32.653 11.2099L42.1247 1.22956C43.6414 -0.369104 46.2184 -0.414388 47.8706 1.12938L60.6867 13.1077C62.3389 14.6515 62.4481 17.2079 60.9314 18.8066L33.4507 47.7719C31.934 49.3705 29.357 49.4158 27.7049 47.8721L27.7035 47.8707ZM15.3795 29.9917C15.9519 30.5269 16.1316 31.342 15.9159 32.4179C15.9118 32.4357 15.9076 32.4535 15.9035 32.4714C15.7445 33.1012 15.9546 33.7819 16.451 34.2457L29.2657 46.2226C30.0026 46.9115 31.1349 46.9101 31.7903 46.2199L59.271 17.2532C59.9263 16.563 59.86 15.4419 59.1231 14.753L46.3083 2.7747C45.5728 2.08721 44.4405 2.08858 43.7852 2.77882L33.8641 13.2353C33.7507 13.3533 33.618 13.4439 33.4756 13.5029C31.7004 14.9863 29.7911 14.978 28.1528 13.448C27.1643 12.5245 26.5214 11.2552 26.2255 10.58L26.1744 10.4565C26.1536 10.4071 26.1329 10.3563 26.1122 10.3069C26.1108 10.3028 26.1094 10.3001 26.108 10.296C25.4361 8.77689 24.4725 7.42386 23.2462 6.27666C18.251 1.6083 10.3609 1.84432 5.65749 6.80086C0.954094 11.7588 1.19051 19.5902 6.18563 24.2585L12.2218 29.8998C12.2591 29.8916 12.3158 29.8737 12.3932 29.8381C12.7057 29.6912 14.326 29.0037 15.3809 29.989L15.3795 29.9917Z" fill="#FF5E7F"/>
<path d="M22.4926 7.07253C17.9316 2.80898 10.752 3.02305 6.45649 7.55145C2.16232 12.0785 2.37662 19.2045 6.939 23.4681C11.5 27.7316 18.6795 27.5162 22.9751 22.9905C27.2706 18.4635 27.055 11.3361 22.4926 7.07253ZM11.1792 18.9973C9.10544 17.0583 9.00728 13.8185 10.9608 11.7601C12.9143 9.70175 16.1785 9.60432 18.2523 11.5433C20.3261 13.4823 20.4257 16.7221 18.4708 18.7805C16.5186 20.8389 13.2531 20.9363 11.1792 18.9973Z" fill="white"/>
<path d="M54.2301 19.9291C54.4748 20.1582 54.8619 20.1459 55.0928 19.903L58.3653 16.4532C58.5962 16.2103 58.5837 15.8261 58.339 15.5969L45.5174 3.61313C45.2726 3.38396 44.8855 3.39631 44.6547 3.6392L32.6694 16.2707C32.4385 16.5136 32.451 16.8978 32.6957 17.127L45.516 29.1107C45.7607 29.3399 46.1492 29.3276 46.3801 29.0847L49.6525 25.6349C49.8834 25.392 49.871 25.0077 49.6263 24.7786L41.1236 16.8319L45.7261 11.9811L54.2287 19.9277L54.2301 19.9291Z" fill="white"/>
<path d="M38.9365 36.0502C39.1812 36.2793 39.5683 36.267 39.7992 36.0241L43.0717 32.5743C43.3025 32.33 43.2915 31.9472 43.0468 31.718L30.2265 19.7342C29.9818 19.5051 29.5947 19.5174 29.3638 19.7603L17.3785 32.3918C17.149 32.6347 17.1601 33.0189 17.4048 33.2481L30.2251 45.2318C30.4698 45.461 30.8569 45.4487 31.0878 45.2058L34.3603 41.756C34.5912 41.5131 34.5787 41.1288 34.334 40.8997L25.8314 32.953L30.4339 28.1022L38.9365 36.0488V36.0502Z" fill="white"/>
</svg>
