<svg width="45" height="45" viewBox="0 0 45 45" fill="none" xmlns="http://www.w3.org/2000/svg">
<g id="heroicons-solid:menu-alt-2">
<path id="Vector" fill-rule="evenodd" clip-rule="evenodd" d="M6.75 11.25C6.75 10.6533 6.98705 10.081 7.40901 9.65901C7.83097 9.23705 8.40326 9 9 9H36C36.5967 9 37.169 9.23705 37.591 9.65901C38.0129 10.081 38.25 10.6533 38.25 11.25C38.25 11.8467 38.0129 12.419 37.591 12.841C37.169 13.2629 36.5967 13.5 36 13.5H9C8.40326 13.5 7.83097 13.2629 7.40901 12.841C6.98705 12.419 6.75 11.8467 6.75 11.25ZM6.75 22.5C6.75 21.9033 6.98705 21.331 7.40901 20.909C7.83097 20.4871 8.40326 20.25 9 20.25H36C36.5967 20.25 37.169 20.4871 37.591 20.909C38.0129 21.331 38.25 21.9033 38.25 22.5C38.25 23.0967 38.0129 23.669 37.591 24.091C37.169 24.5129 36.5967 24.75 36 24.75H9C8.40326 24.75 7.83097 24.5129 7.40901 24.091C6.98705 23.669 6.75 23.0967 6.75 22.5ZM6.75 33.75C6.75 33.1533 6.98705 32.581 7.40901 32.159C7.83097 31.7371 8.40326 31.5 9 31.5H22.5C23.0967 31.5 23.669 31.7371 24.091 32.159C24.5129 32.581 24.75 33.1533 24.75 33.75C24.75 34.3467 24.5129 34.919 24.091 35.341C23.669 35.7629 23.0967 36 22.5 36H9C8.40326 36 7.83097 35.7629 7.40901 35.341C6.98705 34.919 6.75 34.3467 6.75 33.75Z" fill="black"/>
</g>
</svg>
