<svg width="28" height="25" viewBox="0 0 28 25" fill="none" xmlns="http://www.w3.org/2000/svg">
<path d="M28 2.08333V18.75C28 19.3025 27.7731 19.8324 27.3692 20.2231C26.9652 20.6138 26.4174 20.8333 25.8462 20.8333H7.87503L3.55657 24.4935C3.55137 24.4989 3.54549 24.5038 3.53907 24.5078C3.15232 24.8256 2.66135 25.0001 2.15388 25C1.83791 24.9995 1.5259 24.9319 1.23984 24.8021C0.867773 24.6362 0.552976 24.3702 0.333106 24.0358C0.113236 23.7015 -0.00239762 23.3129 3.76885e-05 22.9167V2.08333C3.76885e-05 1.5308 0.22696 1.00089 0.630884 0.610194C1.03481 0.219493 1.58265 0 2.15388 0H25.8462C26.4174 0 26.9652 0.219493 27.3692 0.610194C27.7731 1.00089 28 1.5308 28 2.08333Z" fill="#757575"/>
</svg>
