<svg width="106" height="102" viewBox="0 0 106 102" fill="none" xmlns="http://www.w3.org/2000/svg">
<path d="M68.9149 34.6665L81.9537 43.5001C85.0709 45.6119 86.938 49.132 86.938 52.8972V77.3395C86.938 79.2441 86.3714 81.1057 85.3102 82.6873C83.5277 85.344 80.5387 86.938 77.3395 86.938H12.5585C10.6698 86.938 8.82288 86.3818 7.2483 85.3388L6.75848 85.0143C4.37576 83.4359 2.94296 80.7681 2.94296 77.91C2.94296 75.1913 4.24021 72.6358 6.43486 71.0311L55.849 34.901C59.718 32.0721 64.9469 31.9783 68.9149 34.6665Z" fill="#7B7B7B" stroke="black" stroke-width="4.54027" stroke-linejoin="round"/>
<path d="M21.7527 36.7391L8.04352 45.7824C4.85921 47.8829 2.94299 51.4425 2.94299 55.2573V79.5151C2.94299 81.4794 3.53982 83.3974 4.65441 85.015C6.46345 87.6403 9.44783 89.2082 12.6361 89.2082H79.4258C81.3066 89.2082 83.1476 88.666 84.7281 87.6465L85.3639 87.2364C87.7604 85.6907 89.2082 83.0341 89.2082 80.1824C89.2082 77.4669 87.8945 74.9192 85.6824 73.3443L34.5858 36.9672C30.7659 34.2477 25.6669 34.1571 21.7527 36.7391Z" fill="#D9D9D9" stroke="black" stroke-width="4.54027" stroke-linejoin="round"/>
<rect x="4.07806" y="4.07806" width="83.995" height="83.995" rx="7.94548" stroke="black" stroke-width="6.81041"/>
<path d="M101.694 21.1041V93.7484C101.694 96.2559 99.6611 98.2887 97.1536 98.2887H30.1846" stroke="black" stroke-width="6.81041" stroke-linecap="round" stroke-linejoin="round"/>
</svg>
