<svg width="21" height="22" viewBox="0 0 21 22" fill="none" xmlns="http://www.w3.org/2000/svg">
<g id="carbon:location">
<path id="Vector" d="M10.5 11.8772C9.85103 11.8772 9.21664 11.6848 8.67704 11.3242C8.13744 10.9637 7.71687 10.4512 7.46852 9.85163C7.22017 9.25206 7.15519 8.59231 7.2818 7.95581C7.40841 7.31931 7.72092 6.73465 8.17981 6.27575C8.6387 5.81686 9.22336 5.50435 9.85986 5.37775C10.4964 5.25114 11.1561 5.31612 11.7557 5.56447C12.3553 5.81282 12.8677 6.23339 13.2283 6.77298C13.5888 7.31258 13.7813 7.94698 13.7813 8.59595C13.7802 9.46587 13.4342 10.2999 12.819 10.915C12.2039 11.5301 11.3699 11.8762 10.5 11.8772ZM10.5 6.6272C10.1106 6.6272 9.72998 6.74266 9.40622 6.95899C9.08246 7.17532 8.83012 7.4828 8.68111 7.84254C8.5321 8.20228 8.49312 8.59813 8.56908 8.98003C8.64505 9.36193 8.83255 9.71273 9.10789 9.98807C9.38322 10.2634 9.73402 10.4509 10.1159 10.5269C10.4978 10.6028 10.8937 10.5638 11.2534 10.4148C11.6132 10.2658 11.9206 10.0135 12.137 9.68973C12.3533 9.36597 12.4688 8.98533 12.4688 8.59595C12.4682 8.07396 12.2606 7.57351 11.8915 7.20441C11.5224 6.83531 11.022 6.62772 10.5 6.6272Z" fill="#6D6D6D"/>
<path id="Vector_2" d="M10.5 19.7522L4.96388 13.2232C4.88696 13.1251 4.81083 13.0265 4.73551 12.9272C3.78984 11.6815 3.27897 10.1599 3.28126 8.59595C3.28126 6.68142 4.0418 4.8453 5.39558 3.49152C6.74936 2.13774 8.58548 1.3772 10.5 1.3772C12.4145 1.3772 14.2507 2.13774 15.6044 3.49152C16.9582 4.8453 17.7188 6.68142 17.7188 8.59595C17.721 10.1592 17.2104 11.6801 16.2652 12.9252L16.2645 12.9272C16.2645 12.9272 16.0676 13.1858 16.0381 13.2205L10.5 19.7522ZM5.78288 12.1364C5.7842 12.1364 5.93645 12.3385 5.97123 12.3819L10.5 17.7231L15.0347 12.3746C15.0636 12.3385 15.2171 12.1351 15.2178 12.1344C15.9903 11.1167 16.4078 9.87369 16.4063 8.59595C16.4063 7.02951 15.784 5.52723 14.6764 4.4196C13.5687 3.31196 12.0664 2.6897 10.5 2.6897C8.93357 2.6897 7.43129 3.31196 6.32366 4.4196C5.21602 5.52723 4.59376 7.02951 4.59376 8.59595C4.59238 9.87448 5.00967 11.1182 5.78288 12.1364Z" fill="#6D6D6D"/>
</g>
</svg>
