<svg width="28" height="28" viewBox="0 0 28 28" fill="none" xmlns="http://www.w3.org/2000/svg">
<g id="wpf:faq" clip-path="url(#clip0_100_1914)">
<path id="Vector" d="M14 0C12.1692 0 10.7692 1.4 10.7692 3.23077V9.69231C10.7692 11.5231 12.1692 12.9231 14 12.9231H20.4615L24.7692 17.2308V12.9231C26.6 12.9231 28 11.5231 28 9.69231V3.23077C28 1.4 26.6 0 24.7692 0H14ZM18.5102 3.23077H20.3603L22.1782 9.69231H20.5628L20.1245 8.07692H18.5091L18.1063 9.69231H16.6923L18.5102 3.23077ZM19.3846 4.30769C19.2769 4.73846 19.1563 5.264 19.0475 5.58708L18.746 7H20.0243L19.7206 5.586C19.5063 5.264 19.3846 4.73846 19.3846 4.30769ZM3.23077 10.7692C1.4 10.7692 0 12.1692 0 14V20.4615C0 22.2923 1.4 23.6923 3.23077 23.6923V28L7.53846 23.6923H14C15.8308 23.6923 17.2308 22.2923 17.2308 20.4615V14H14C11.9538 14 10.332 12.6 9.79354 10.7692H3.23077ZM8.17815 13.8988C10.0089 13.8988 10.8705 15.4065 10.8705 17.1295C10.8705 18.6372 10.3525 19.5935 9.49092 20.0243C9.92169 20.2397 10.4322 20.3538 10.9706 20.4615L10.5678 21.5385C9.814 21.3231 9.03215 20.9871 8.27831 20.6629C8.17062 20.5552 7.98215 20.5628 7.87446 20.5628C6.58215 20.4551 5.38462 19.3846 5.38462 17.2308C5.38462 15.4 6.45508 13.8988 8.17815 13.8988ZM8.17815 15.0769C7.31662 15.0769 6.89877 16.0462 6.89877 17.2308C6.89877 18.5231 7.31662 19.3846 8.17815 19.3846C9.03969 19.3846 9.48985 18.4154 9.48985 17.2308C9.48985 16.0462 9.03969 15.0769 8.17815 15.0769Z" fill="black"/>
</g>
<defs>
<clipPath id="clip0_100_1914">
<rect width="28" height="28" fill="white"/>
</clipPath>
</defs>
</svg>
