<svg width="34" height="34" viewBox="0 0 34 34" fill="none" xmlns="http://www.w3.org/2000/svg">
<g id="ph:x-circle-fill">
<path id="Vector" d="M17 30.8125C14.2681 30.8125 11.5976 30.0024 9.32618 28.4847C7.05473 26.9669 5.28435 24.8097 4.23891 22.2858C3.19348 19.7619 2.91994 16.9847 3.4529 14.3053C3.98586 11.626 5.30137 9.1648 7.23309 7.23309C9.1648 5.30137 11.626 3.98586 14.3053 3.4529C16.9847 2.91994 19.7619 3.19348 22.2858 4.23891C24.8097 5.28435 26.9669 7.05473 28.4847 9.32619C30.0024 11.5976 30.8125 14.2681 30.8125 17C30.8086 20.6621 29.3521 24.1731 26.7626 26.7626C24.1731 29.3521 20.6621 30.8086 17 30.8125ZM22.0017 13.5017C22.1004 13.403 22.1787 13.2858 22.2322 13.1568C22.2856 13.0278 22.3131 12.8896 22.3131 12.75C22.3131 12.6104 22.2856 12.4722 22.2322 12.3432C22.1787 12.2142 22.1004 12.097 22.0017 11.9983C21.903 11.8996 21.7858 11.8213 21.6568 11.7678C21.5278 11.7144 21.3896 11.6869 21.25 11.6869C21.1104 11.6869 20.9722 11.7144 20.8432 11.7678C20.7142 11.8213 20.597 11.8996 20.4983 11.9983L17 15.4979L13.5017 11.9983C13.403 11.8996 13.2858 11.8213 13.1568 11.7678C13.0278 11.7144 12.8896 11.6869 12.75 11.6869C12.6104 11.6869 12.4722 11.7144 12.3432 11.7678C12.2142 11.8213 12.097 11.8996 11.9983 11.9983C11.8996 12.097 11.8213 12.2142 11.7678 12.3432C11.7144 12.4722 11.6869 12.6104 11.6869 12.75C11.6869 12.8896 11.7144 13.0278 11.7678 13.1568C11.8213 13.2858 11.8996 13.403 11.9983 13.5017L15.4979 17L11.9983 20.4983C11.7989 20.6976 11.6869 20.9681 11.6869 21.25C11.6869 21.5319 11.7989 21.8024 11.9983 22.0017C12.1976 22.2011 12.468 22.3131 12.75 22.3131C13.0319 22.3131 13.3023 22.2011 13.5017 22.0017L17 18.5021L20.4983 22.0017C20.597 22.1004 20.7142 22.1787 20.8432 22.2322C20.9722 22.2856 21.1104 22.3131 21.25 22.3131C21.3896 22.3131 21.5278 22.2856 21.6568 22.2322C21.7858 22.1787 21.903 22.1004 22.0017 22.0017C22.1004 21.903 22.1787 21.7858 22.2322 21.6568C22.2856 21.5278 22.3131 21.3896 22.3131 21.25C22.3131 21.1104 22.2856 20.9722 22.2322 20.8432C22.1787 20.7142 22.1004 20.597 22.0017 20.4983L18.5021 17L22.0017 13.5017Z" fill="black"/>
</g>
</svg>
