<svg width="44" height="43" viewBox="0 0 44 43" fill="none" xmlns="http://www.w3.org/2000/svg">
<path d="M7.7883 30.4149C4.21137 31.4879 2 32.9701 2 34.6074C2 37.8819 10.8475 40.536 21.762 40.536C32.6766 40.536 41.5241 37.8819 41.5241 34.6074C41.5241 32.9701 39.3117 31.4879 35.7358 30.4149" fill="url(#paint0_radial_77_401)"/>
<path d="M7.7883 30.4149C4.21137 31.4879 2 32.9701 2 34.6074C2 37.8819 10.8475 40.536 21.762 40.536C32.6766 40.536 41.5241 37.8819 41.5241 34.6074C41.5241 32.9701 39.3117 31.4879 35.7358 30.4149" stroke="#FF5E7F" stroke-width="3" stroke-linecap="round" stroke-linejoin="round"/>
<path d="M21.762 32.6312C21.762 32.6312 34.6073 24.2362 34.6073 14.5311C34.6073 7.61044 28.8566 2 21.762 2C14.6674 2 8.91669 7.61044 8.91669 14.5311C8.91669 24.2362 21.762 32.6312 21.762 32.6312Z" stroke="black" stroke-width="3" stroke-linejoin="round"/>
<path d="M21.762 19.7859C23.0723 19.7859 24.329 19.2653 25.2555 18.3388C26.182 17.4123 26.7025 16.1557 26.7025 14.8454C26.7025 13.535 26.182 12.2784 25.2555 11.3519C24.329 10.4254 23.0723 9.90485 21.762 9.90485C20.4517 9.90485 19.1951 10.4254 18.2685 11.3519C17.342 12.2784 16.8215 13.535 16.8215 14.8454C16.8215 16.1557 17.342 17.4123 18.2685 18.3388C19.1951 19.2653 20.4517 19.7859 21.762 19.7859Z" stroke="black" stroke-width="3" stroke-linejoin="round"/>
<defs>
<radialGradient id="paint0_radial_77_401" cx="0" cy="0" r="1" gradientUnits="userSpaceOnUse" gradientTransform="translate(21.762 35.4754) rotate(90) scale(5.06056 19.762)">
<stop stop-color="#FFA7B9"/>
<stop offset="0.541667" stop-color="#FFD3DC"/>
<stop offset="1" stop-color="#F7D7DD" stop-opacity="0"/>
</radialGradient>
</defs>
</svg>
