<svg width="48" height="49" viewBox="0 0 48 49" fill="none" xmlns="http://www.w3.org/2000/svg">
<g id="icon-park-outline:local">
<g id="Group">
<path id="Vector" d="M10.0838 33.1677C6.50686 34.2408 4.29549 35.723 4.29549 37.3602C4.29549 40.6348 13.1429 43.2888 24.0575 43.2888C34.9721 43.2888 43.8196 40.6348 43.8196 37.3602C43.8196 35.723 41.6072 34.2408 38.0312 33.1677" stroke="#0047FF" stroke-width="2.99101" stroke-linecap="round" stroke-linejoin="round"/>
<path id="Vector_2" d="M24.0575 35.3841C24.0575 35.3841 36.9028 26.9892 36.9028 17.284C36.9028 10.3634 31.152 4.75293 24.0575 4.75293C16.9629 4.75293 11.2122 10.3634 11.2122 17.284C11.2122 26.9892 24.0575 35.3841 24.0575 35.3841Z" stroke="#0047FF" stroke-width="2.99101" stroke-linejoin="round"/>
<path id="Vector_3" d="M24.0575 22.5387C25.3678 22.5387 26.6244 22.0182 27.5509 21.0917C28.4775 20.1652 28.998 18.9085 28.998 17.5982C28.998 16.2879 28.4775 15.0313 27.5509 14.1048C26.6244 13.1782 25.3678 12.6577 24.0575 12.6577C22.7472 12.6577 21.4905 13.1782 20.564 14.1048C19.6375 15.0313 19.117 16.2879 19.117 17.5982C19.117 18.9085 19.6375 20.1652 20.564 21.0917C21.4905 22.0182 22.7472 22.5387 24.0575 22.5387Z" stroke="#0047FF" stroke-width="2.99101" stroke-linejoin="round"/>
</g>
</g>
</svg>
