<svg width="56" height="55" viewBox="0 0 56 55" fill="none" xmlns="http://www.w3.org/2000/svg">
<circle cx="27.8904" cy="27.5" r="26" stroke="black" stroke-width="3"/>
<path d="M19.3188 18.3677C17.7947 18.3677 16.4603 19.0231 15.6285 20.131C14.7967 19.0231 13.4623 18.3677 11.9382 18.3677C10.725 18.3691 9.56184 18.8517 8.70397 19.7095C7.8461 20.5674 7.36355 21.7305 7.36218 22.9437C7.36218 28.1102 15.0225 32.292 15.3488 32.4648C15.4348 32.511 15.5309 32.5352 15.6285 32.5352C15.7261 32.5352 15.8222 32.511 15.9082 32.4648C16.2344 32.292 23.8948 28.1102 23.8948 22.9437C23.8934 21.7305 23.4109 20.5674 22.553 19.7095C21.6952 18.8517 20.532 18.3691 19.3188 18.3677ZM15.6285 31.2691C14.2808 30.4838 8.54308 26.9064 8.54308 22.9437C8.54426 22.0437 8.90233 21.1808 9.53878 20.5443C10.1752 19.9079 11.0381 19.5498 11.9382 19.5486C13.3737 19.5486 14.579 20.3133 15.0823 21.5414C15.1268 21.6497 15.2025 21.7423 15.2997 21.8075C15.397 21.8727 15.5114 21.9075 15.6285 21.9075C15.7456 21.9075 15.86 21.8727 15.9573 21.8075C16.0545 21.7423 16.1302 21.6497 16.1747 21.5414C16.678 20.3111 17.8833 19.5486 19.3188 19.5486C20.2189 19.5498 21.0818 19.9079 21.7182 20.5443C22.3547 21.1808 22.7127 22.0437 22.7139 22.9437C22.7139 26.9005 16.9747 30.4831 15.6285 31.2691Z" fill="#FF1A1A" stroke="#FF5E7F" stroke-width="2"/>
<path d="M44.347 18.3677C42.8229 18.3677 41.4885 19.0231 40.6567 20.131C39.8249 19.0231 38.4904 18.3677 36.9663 18.3677C35.7531 18.3691 34.59 18.8517 33.7321 19.7095C32.8743 20.5674 32.3917 21.7305 32.3904 22.9437C32.3904 28.1102 40.0507 32.292 40.3769 32.4648C40.4629 32.511 40.559 32.5352 40.6567 32.5352C40.7543 32.5352 40.8504 32.511 40.9364 32.4648C41.2626 32.292 48.923 28.1102 48.923 22.9437C48.9216 21.7305 48.4391 20.5674 47.5812 19.7095C46.7233 18.8517 45.5602 18.3691 44.347 18.3677ZM40.6567 31.2691C39.309 30.4838 33.5713 26.9064 33.5713 22.9437C33.5724 22.0437 33.9305 21.1808 34.5669 20.5443C35.2034 19.9079 36.0663 19.5498 36.9663 19.5486C38.4019 19.5486 39.6071 20.3133 40.1105 21.5414C40.155 21.6497 40.2307 21.7423 40.3279 21.8075C40.4252 21.8727 40.5396 21.9075 40.6567 21.9075C40.7737 21.9075 40.8882 21.8727 40.9854 21.8075C41.0827 21.7423 41.1583 21.6497 41.2028 21.5414C41.7062 20.3111 42.9114 19.5486 44.347 19.5486C45.2471 19.5498 46.1099 19.9079 46.7464 20.5443C47.3828 21.1808 47.7409 22.0437 47.7421 22.9437C47.7421 26.9005 42.0029 30.4831 40.6567 31.2691Z" fill="#FF1A1A" stroke="#FF5E7F" stroke-width="2"/>
<mask id="path-4-inside-1_173_1134" fill="white">
<path fill-rule="evenodd" clip-rule="evenodd" d="M15.4507 34.8592C14.8549 34.8592 14.3884 35.3785 14.5011 35.9635C15.7404 42.3953 21.3991 47.2536 28.1926 47.2536C34.9861 47.2536 40.6448 42.3953 41.8841 35.9635C41.9968 35.3785 41.5303 34.8592 40.9345 34.8592H15.4507Z"/>
</mask>
<path d="M41.8841 35.9635L38.9382 35.396L41.8841 35.9635ZM28.1926 44.2536C22.8641 44.2536 18.4193 40.4423 17.447 35.396L11.5553 36.5311C13.0615 44.3482 19.9342 50.2536 28.1926 50.2536V44.2536ZM38.9382 35.396C37.9659 40.4423 33.5211 44.2536 28.1926 44.2536V50.2536C36.451 50.2536 43.3237 44.3482 44.8299 36.5311L38.9382 35.396ZM40.9345 31.8592H15.4507V37.8592H40.9345V31.8592ZM44.8299 36.5311C45.3308 33.9312 43.2436 31.8592 40.9345 31.8592V37.8592C39.817 37.8592 38.6628 36.8258 38.9382 35.396L44.8299 36.5311ZM17.447 35.396C17.7225 36.8258 16.5682 37.8592 15.4507 37.8592V31.8592C13.1416 31.8592 11.0544 33.9312 11.5553 36.5311L17.447 35.396Z" fill="black" mask="url(#path-4-inside-1_173_1134)"/>
</svg>
