<svg width="47" height="45" viewBox="0 0 47 45" fill="none" xmlns="http://www.w3.org/2000/svg">
<path d="M30.2311 14.9743L35.9747 18.8655C37.3478 19.7957 38.1703 21.3464 38.1703 23.0049V33.7718C38.1703 34.6108 37.9207 35.4308 37.4532 36.1276C36.6681 37.2978 35.3514 38 33.9421 38H5.40594C4.57396 38 3.7604 37.755 3.0668 37.2955L2.85104 37.1526C1.80144 36.4573 1.17029 35.2822 1.17029 34.0232C1.17029 32.8255 1.74173 31.6998 2.70848 30.993L24.4755 15.0776C26.1798 13.8314 28.4832 13.7901 30.2311 14.9743Z" fill="#FF5E7F" stroke="black" stroke-width="2" stroke-linejoin="round"/>
<path d="M9.45599 15.8872L3.41708 19.8708C2.01439 20.7961 1.17029 22.3641 1.17029 24.0445V34.7302C1.17029 35.5955 1.43319 36.4404 1.92417 37.1529C2.72106 38.3094 4.03568 39 5.44012 39H34.8611C35.6896 39 36.5006 38.7612 37.1968 38.3121L37.4769 38.1314C38.5325 37.4506 39.1703 36.2803 39.1703 35.0241C39.1703 33.828 38.5916 32.7057 37.6172 32.0119L15.109 15.9878C13.4263 14.7898 11.1802 14.7499 9.45599 15.8872Z" fill="#FFBAC7" stroke="black" stroke-width="2" stroke-linejoin="round"/>
<rect x="1.67029" y="1.5" width="37" height="37" rx="3.5" stroke="black" stroke-width="3"/>
<path d="M44.6703 9V41C44.6703 42.1046 43.7749 43 42.6703 43H13.1703" stroke="black" stroke-width="3" stroke-linecap="round" stroke-linejoin="round"/>
</svg>
