<svg width="47" height="47" viewBox="0 0 47 47" fill="none" xmlns="http://www.w3.org/2000/svg">
<g id="icon-park-outline:picture-album">
<g id="Group">
<path id="Vector" d="M33.04 6.36133H8.27517C7.22307 6.36133 6.37018 7.21422 6.37018 8.26632V33.0312C6.37018 34.0833 7.22307 34.9362 8.27517 34.9362H33.04C34.0921 34.9362 34.945 34.0833 34.945 33.0312V8.26632C34.945 7.21422 34.0921 6.36133 33.04 6.36133Z" stroke="#0047FF" stroke-width="2.99101" stroke-linejoin="round"/>
<path id="Vector_2" d="M40.66 12.0762V37.7935C40.66 38.5514 40.3589 39.2782 39.823 39.8141C39.2872 40.3499 38.5603 40.651 37.8025 40.651H12.0851M6.37018 24.4586L13.6625 17.9759C14.0139 17.6635 14.4685 17.4922 14.9387 17.4948C15.4089 17.4975 15.8615 17.6739 16.2094 17.9902L25.4201 26.3636" stroke="#0047FF" stroke-width="2.99101" stroke-linecap="round" stroke-linejoin="round"/>
<path id="Vector_3" d="M21.6101 22.5536L26.1678 18.7551C26.4973 18.4807 26.9098 18.3255 27.3384 18.3146C27.7671 18.3037 28.1869 18.4378 28.53 18.6951L34.945 23.5061M6.37018 18.7437V26.3636M34.945 18.7437V26.3636" stroke="#0047FF" stroke-width="2.99101" stroke-linecap="round" stroke-linejoin="round"/>
</g>
</g>
</svg>
