<svg width="65" height="65" viewBox="0 0 65 65" fill="none" xmlns="http://www.w3.org/2000/svg">
<g id="solar:map-broken">
<path id="Vector" d="M56.2372 19.6811C56.2372 16.9143 56.2372 15.5296 55.4864 14.487C54.7357 13.4445 53.4226 13.0068 50.7964 12.1314L47.7059 11.1021C44.0796 9.89248 42.2678 9.28766 40.4401 9.53436C38.615 9.77841 37.0233 10.8369 33.8427 12.9564L30.1766 15.4022C27.6937 17.0575 26.4522 17.8852 25.0568 18.2141C24.5461 18.3361 24.0245 18.4072 23.4997 18.4264C22.0672 18.4741 20.6533 18.0019 17.8228 17.0575C14.1143 15.8214 12.26 15.2033 10.8487 15.832C10.3486 16.0545 9.89981 16.3778 9.53034 16.7817C8.48781 17.925 8.48781 19.8774 8.48781 23.7875V34.5709M56.2372 29.8623V41.2426C56.2372 45.1527 56.2372 47.1078 55.1946 48.2458C54.8257 48.6516 54.3768 48.9767 53.8762 49.2008C52.465 49.8269 50.6107 49.2088 46.9022 47.9726C44.0717 47.0282 42.6578 46.556 41.2253 46.6064C40.6998 46.6237 40.1773 46.693 39.6655 46.8133C38.2728 47.1449 37.0313 47.9726 34.5483 49.6252L30.8823 52.0711C27.699 54.1933 26.11 55.2544 24.2849 55.4958C22.4598 55.7425 20.6453 55.1376 17.019 53.928L13.9286 52.8987C11.3024 52.0233 9.98926 51.5856 9.23853 50.5431C8.5276 49.5563 8.49046 48.2617 8.48781 45.7788M40.3207 9.96676V19.2514M40.3207 45.7788V29.8623M24.4043 55.0634V45.7788M24.4043 19.2514V35.1678" stroke="#0047FF" stroke-width="2.99101" stroke-linecap="round"/>
</g>
</svg>
