<svg width="65" height="64" viewBox="0 0 65 64" fill="none" xmlns="http://www.w3.org/2000/svg">
<path d="M56.7802 19.0987C56.7802 16.3173 56.7802 14.9253 56.0255 13.8773C55.2709 12.8293 53.9509 12.3893 51.3109 11.5093L48.2042 10.4747C44.5589 9.25866 42.7375 8.65066 40.9002 8.89866C39.0655 9.14399 37.4655 10.208 34.2682 12.3387L30.5829 14.7973C28.0869 16.4613 26.8389 17.2933 25.4362 17.624C24.9228 17.7466 24.3984 17.818 23.8709 17.8373C22.4309 17.8853 21.0095 17.4107 18.1642 16.4613C14.4362 15.2187 12.5722 14.5973 11.1535 15.2293C10.6508 15.453 10.1996 15.778 9.82821 16.184C8.78021 17.3333 8.78021 19.296 8.78021 23.2267V34.0667M56.7802 29.3333V40.7733C56.7802 44.704 56.7802 46.6693 55.7322 47.8133C55.3613 48.2212 54.9101 48.5481 54.4069 48.7733C52.9882 49.4027 51.1242 48.7813 47.3962 47.5387C44.5509 46.5893 43.1295 46.1147 41.6895 46.1653C41.1613 46.1827 40.6361 46.2524 40.1215 46.3733C38.7215 46.7067 37.4735 47.5387 34.9775 49.2L31.2922 51.6587C28.0922 53.792 26.4949 54.8587 24.6602 55.1013C22.8255 55.3493 21.0015 54.7413 17.3562 53.5253L14.2495 52.4907C11.6095 51.6107 10.2895 51.1707 9.53488 50.1227C8.82021 49.1307 8.78288 47.8293 8.78021 45.3333M40.7802 9.33333V18.6667V9.33333ZM40.7802 45.3333V29.3333V45.3333ZM24.7802 54.6667V45.3333V54.6667ZM24.7802 18.6667V34.6667V18.6667Z" fill="#FFBAC7"/>
<path d="M56.7802 19.0987C56.7802 16.3173 56.7802 14.9253 56.0255 13.8773C55.2709 12.8293 53.9509 12.3893 51.3109 11.5093L48.2042 10.4747C44.5589 9.25866 42.7375 8.65066 40.9002 8.89866C39.0655 9.14399 37.4655 10.208 34.2682 12.3387L30.5829 14.7973C28.0869 16.4613 26.8389 17.2933 25.4362 17.624C24.9228 17.7466 24.3984 17.818 23.8709 17.8373C22.4309 17.8853 21.0095 17.4107 18.1642 16.4613C14.4362 15.2187 12.5722 14.5973 11.1535 15.2293C10.6508 15.453 10.1996 15.778 9.82821 16.184C8.78021 17.3333 8.78021 19.296 8.78021 23.2267V34.0667M56.7802 29.3333V40.7733C56.7802 44.704 56.7802 46.6693 55.7322 47.8133C55.3613 48.2212 54.9101 48.5481 54.4069 48.7733C52.9882 49.4027 51.1242 48.7813 47.3962 47.5387C44.5509 46.5893 43.1295 46.1147 41.6895 46.1653C41.1613 46.1827 40.6361 46.2524 40.1215 46.3733C38.7215 46.7067 37.4735 47.5387 34.9775 49.2L31.2922 51.6587C28.0922 53.792 26.4949 54.8587 24.6602 55.1013C22.8255 55.3493 21.0015 54.7413 17.3562 53.5253L14.2495 52.4907C11.6095 51.6107 10.2895 51.1707 9.53488 50.1227C8.82021 49.1307 8.78288 47.8293 8.78021 45.3333M40.7802 9.33333V18.6667M40.7802 45.3333V29.3333M24.7802 54.6667V45.3333M24.7802 18.6667V34.6667" stroke="black" stroke-width="2.99101" stroke-linecap="round"/>
</svg>
